<svg width="639" height="622" viewBox="0 0 639 622" fill="none" xmlns="http://www.w3.org/2000/svg">
<path d="M639 2L535.373 50L501.246 41L473.595 77L443.104 122.085L430.501 128.5L416.551 122.085H377.633L357.542 136.391L336.34 145.928L326.625 171.939L303.956 187.112L280.292 204.886L268.085 228L259.616 229.5L249.154 230.5L234.208 267H221.254H208.301H194.6L176.49 288.987L147.418 305.894L136.781 300.258H128.982L74.3823 349.245L57.8371 371.787L34.201 374.388L18.3649 383.059L-25.5982 396.497L-87.5246 417.306L-164.108 445.484L-208.698 457.5L-252.291 493.5L-333 513.5" stroke="#50CE61" stroke-width="4" stroke-linecap="round"/>
<path d="M-25.5982 396.497L-87.5246 417.306L-164.108 445.484L-208.698 457.5L-252.291 493.5L-333 513.5V621.5H639V2L535.373 50L501.246 41L473.595 77L443.104 122.085L430.501 128.5L416.551 122.085H377.633L357.542 136.391L336.34 145.928L326.625 171.939L303.956 187.112L280.292 204.886L268.085 228L259.616 229.5L249.154 230.5L234.208 267H221.254H208.301H194.6L176.49 288.987L147.418 305.894L136.781 300.258H128.982L74.3823 349.245L57.837 371.787L34.201 374.388L18.3649 383.059L-25.5982 396.497Z" fill="url(#paint0_linear_1_1156)"/>
<defs>
<linearGradient id="paint0_linear_1_1156" x1="113.579" y1="2" x2="113.579" y2="621.5" gradientUnits="userSpaceOnUse">
<stop stop-color="#50CE61" stop-opacity="0.6"/>
<stop offset="1" stop-color="#50CE61" stop-opacity="0"/>
</linearGradient>
</defs>
</svg>
