<svg width="1920" height="622" viewBox="0 0 1920 622" fill="none" xmlns="http://www.w3.org/2000/svg">
<path d="M1932 2L1724 50L1655.5 41L1600 77L1538.8 122.085L1513.5 128.5L1485.5 122.085H1407.38L1367.06 136.391L1324.5 145.928L1305 171.939L1259.5 187.112L1212 204.886L1187.5 228L1170.5 229.5L1149.5 230.5L1119.5 267H1093.5H1067.5H1040L1003.65 288.987L945.295 305.894L923.946 300.258H908.29L798.698 349.245L765.489 371.787L718.046 374.388L686.26 383.059L598.017 396.497L473.719 417.306L320 445.484L230.5 457.5L143 493.5L-19 513.5" stroke="#50CE61" stroke-width="4" stroke-linecap="round"/>
<path d="M598.017 396.497L473.719 417.306L320 445.484L230.5 457.5L143 493.5L-19 513.5V621.5H1932V2L1724 50L1655.5 41L1600 77L1538.8 122.085L1513.5 128.5L1485.5 122.085H1407.38L1367.06 136.391L1324.5 145.928L1305 171.939L1259.5 187.112L1212 204.886L1187.5 228L1170.5 229.5L1149.5 230.5L1119.5 267H1093.5H1067.5H1040L1003.65 288.987L945.295 305.894L923.946 300.258H908.29L798.698 349.245L765.489 371.787L718.046 374.388L686.26 383.059L598.017 396.497Z" fill="url(#paint0_linear_1_301)"/>
<defs>
<linearGradient id="paint0_linear_1_301" x1="877.374" y1="2" x2="877.374" y2="621.5" gradientUnits="userSpaceOnUse">
<stop stop-color="#50CE61" stop-opacity="0.6"/>
<stop offset="1" stop-color="#50CE61" stop-opacity="0"/>
</linearGradient>
</defs>
</svg>
