<svg width="320" height="596" viewBox="0 0 320 596" fill="none" xmlns="http://www.w3.org/2000/svg">
<path d="M320 2L267.653 47.9855L250.414 39.3632L236.447 73.8523L221.045 117.045L214.678 123.191L207.631 117.045H187.972L177.823 130.751L167.113 139.888L162.206 164.807L150.755 179.343L138.801 196.371L132.635 218.515L128.356 219.952L123.071 220.91L115.522 255.878H108.978H102.435H95.514L86.3658 276.942L71.6801 293.139L66.3073 287.74H62.3672L34.7867 334.671L26.429 356.267L14.4894 358.759L6.48986 367.066L-15.7178 379.941L-46.9996 399.876L-85.6854 426.871L-108.209 438.383L-130.23 472.872L-171 492.033" stroke="#50CE61" stroke-width="4" stroke-linecap="round"/>
<path d="M-15.7178 379.941L-46.9996 399.876L-85.6854 426.871L-108.209 438.383L-130.23 472.872L-171 492.033V595.5H320V2L267.654 47.9855L250.414 39.3632L236.447 73.8523L221.044 117.045L214.678 123.191L207.631 117.045H187.972L177.823 130.751L167.113 139.888L162.206 164.807L150.755 179.343L138.801 196.371L132.635 218.515L128.356 219.952L123.071 220.91L115.522 255.878H108.978H102.435H95.514L86.3658 276.942L71.6801 293.139L66.3073 287.74H62.3672L34.7867 334.671L26.429 356.267L14.4894 358.759L6.48985 367.066L-15.7178 379.941Z" fill="url(#paint0_linear_1_1458)"/>
<defs>
<linearGradient id="paint0_linear_1_1458" x1="54.5866" y1="2" x2="54.5866" y2="595.5" gradientUnits="userSpaceOnUse">
<stop stop-color="#50CE61" stop-opacity="0.6"/>
<stop offset="1" stop-color="#50CE61" stop-opacity="0"/>
</linearGradient>
</defs>
</svg>
